<svg xmlns="http://www.w3.org/2000/svg" xmlns:xlink="http://www.w3.org/1999/xlink" width="500" zoomAndPan="magnify" viewBox="0 0 375 374.999991" height="500" preserveAspectRatio="xMidYMid meet" version="1.2"><defs><clipPath id="555956d6d4"><path d="M 113.351562 106.566406 L 212.941406 106.566406 L 212.941406 160.589844 L 113.351562 160.589844 Z M 113.351562 106.566406 "/></clipPath><clipPath id="930e387eed"><path d="M 0.351562 0.566406 L 99.941406 0.566406 L 99.941406 54.589844 L 0.351562 54.589844 Z M 0.351562 0.566406 "/></clipPath><clipPath id="5a2f218beb"><rect x="0" width="100" y="0" height="55"/></clipPath><clipPath id="a3b5ab48b8"><path d="M 52.734375 88 L 175 88 L 175 147 L 52.734375 147 Z M 52.734375 88 "/></clipPath><clipPath id="992931d38b"><path d="M 191 61 L 321.984375 61 L 321.984375 118 L 191 118 Z M 191 61 "/></clipPath></defs><g id="fc50696c2d"><g clip-rule="nonzero" clip-path="url(#555956d6d4)"><g transform="matrix(1,0,0,1,113,106)"><g clip-path="url(#5a2f218beb)"><g clip-rule="nonzero" clip-path="url(#930e387eed)"><path style=" stroke:none;fill-rule:nonzero;fill:#ffffff;fill-opacity:1;" d="M 0.351562 0.566406 L 99.957031 0.566406 L 99.957031 54.589844 L 0.351562 54.589844 Z M 0.351562 0.566406 "/></g></g></g></g><path style=" stroke:none;fill-rule:nonzero;fill:#d92e2e;fill-opacity:1;" d="M 138.882812 366.648438 C 138.882812 358.296875 162.273438 342.019531 191.128906 342.019531 C 219.984375 342.019531 243.375 358.296875 243.375 366.648438 C 243.375 375 219.984375 372.261719 191.128906 372.261719 C 162.273438 372.261719 138.882812 375 138.882812 366.648438 "/><path style=" stroke:none;fill-rule:nonzero;fill:#d92e2e;fill-opacity:1;" d="M 196.722656 93.191406 C 187.695312 86.15625 183.007812 82.804688 173.246094 76.476562 C 203.996094 174.625 199.359375 274.4375 167.945312 371.800781 C 177.53125 365.625 195.300781 352.792969 203.789062 345.496094 C 219.789062 261.496094 217.632812 176.128906 196.722656 93.191406 "/><path style=" stroke:none;fill-rule:nonzero;fill:#d92e2e;fill-opacity:1;" d="M 281.421875 192.839844 C 276.132812 182.203125 270.210938 173.238281 264.003906 165.703125 L 247.414062 132.3125 L 255.347656 156.230469 C 246.253906 147.265625 236.914062 140.921875 228.335938 136.4375 L 215.863281 113.722656 L 223.605469 134.109375 C 206.457031 126.179688 193.386719 125.621094 193.386719 125.621094 C 188.917969 111.464844 198.921875 83.621094 238.207031 105.882812 C 290.96875 135.785156 281.421875 192.839844 281.421875 192.839844 "/><path style=" stroke:none;fill-rule:nonzero;fill:#d92e2e;fill-opacity:1;" d="M 108.910156 187.695312 C 113.671875 178.011719 119.019531 169.851562 124.632812 162.980469 L 139.585938 132.585938 L 132.464844 154.34375 C 140.691406 146.164062 149.15625 140.367188 156.933594 136.265625 L 168.179688 115.582031 L 161.222656 134.128906 C 176.769531 126.863281 188.648438 126.3125 188.648438 126.3125 C 192.652344 113.429688 183.464844 88.171875 147.855469 108.535156 C 100.023438 135.894531 108.910156 187.695312 108.910156 187.695312 "/><g clip-rule="nonzero" clip-path="url(#a3b5ab48b8)"><path style=" stroke:none;fill-rule:nonzero;fill:#d92e2e;fill-opacity:1;" d="M 52.882812 146.273438 C 63.007812 139.167969 72.878906 133.914062 82.300781 130.109375 L 114.085938 107.816406 L 94.933594 125.746094 C 107.707031 122.066406 119.40625 120.910156 129.480469 121.074219 L 152.183594 106.496094 L 134.96875 121.296875 C 154.59375 122.566406 166.828125 128.558594 166.828125 128.558594 C 177.957031 117.828125 182.648438 87.386719 135.644531 88.214844 C 72.515625 89.332031 52.882812 146.273438 52.882812 146.273438 "/></g><path style=" stroke:none;fill-rule:nonzero;fill:#d92e2e;fill-opacity:1;" d="M 73.679688 57.871094 C 86.667969 59.207031 98.175781 61.84375 108.328125 65.320312 L 149.09375 69.507812 L 121.417969 70.574219 C 134.152344 76.472656 144.285156 83.636719 152.207031 90.734375 L 180.402344 94.800781 L 156.433594 94.703125 C 171.210938 109.289062 176.824219 122.527344 176.824219 122.527344 C 193.121094 121.660156 217.917969 100.617188 179.847656 68.785156 C 128.710938 26.023438 73.679688 57.871094 73.679688 57.871094 "/><path style=" stroke:none;fill-rule:nonzero;fill:#d92e2e;fill-opacity:1;" d="M 149.929688 0 C 156.890625 8.25 162.21875 16.425781 166.257812 24.320312 L 188.097656 50.21875 L 171.027344 34.964844 C 175.214844 45.78125 177.125 55.859375 177.761719 64.628906 L 192.191406 83.230469 L 177.992188 69.417969 C 178.414062 86.574219 174.148438 97.671875 174.148438 97.671875 C 184.335938 106.511719 211.164062 108.234375 206.800781 67.445312 C 200.941406 12.65625 149.929688 0 149.929688 0 "/><g clip-rule="nonzero" clip-path="url(#992931d38b)"><path style=" stroke:none;fill-rule:nonzero;fill:#d92e2e;fill-opacity:1;" d="M 322.191406 92.324219 C 309.84375 89.222656 298.417969 87.808594 287.957031 87.613281 L 249.195312 77.878906 L 274.207031 88.070312 C 260.570312 89.234375 248.898438 92.425781 239.269531 96.292969 L 212.078125 90.628906 L 234.078125 98.527344 C 215.671875 106.96875 206.121094 117.234375 206.121094 117.234375 C 191.472656 111.011719 175.75 83.46875 221.25 66.96875 C 282.359375 44.808594 322.191406 92.324219 322.191406 92.324219 "/></g></g></svg>